<svg version="1.2" xmlns="http://www.w3.org/2000/svg" viewBox="0 0 49 27" width="49" height="27"><style></style><path  d="m29.6 20.2q0-1.7-1.2-2.6-1.2-1-4.4-1.9-3.2-1-5-2.2-3.6-2.2-3.6-5.9 0-3.1 2.6-5.2 2.6-2.1 6.7-2.1 2.7 0 4.9 1 2.1 1.1 3.4 2.9 1.2 1.9 1.2 4.2h-4.6q0-2.1-1.3-3.2-1.2-1.2-3.6-1.2-2.3 0-3.5 0.9-1.3 1-1.3 2.7 0 1.5 1.4 2.4 1.3 1 4.4 1.9 3.1 0.9 4.9 2.1 1.9 1.1 2.7 2.7 0.9 1.5 0.9 3.5 0 3.3-2.5 5.2-2.5 2-6.8 2-2.9 0-5.3-1.1-2.4-1.1-3.7-2.9-1.3-1.9-1.3-4.3h4.5q0 2.2 1.5 3.4 1.5 1.2 4.3 1.2 2.3 0 3.5-0.9 1.2-1 1.2-2.6z"/></svg>